<?xml version="1.0" encoding="UTF-8"?>
<svg version="1.1" xmlns="http://www.w3.org/2000/svg" width="2480" height="3508">
<path d="M0 0 C1.49536133 2.11938477 1.49536133 2.11938477 3.08203125 4.94140625 C3.67725586 5.98804443 4.27248047 7.03468262 4.88574219 8.11303711 C5.8394873 9.82052124 5.8394873 9.82052124 6.8125 11.5625 C7.48106376 12.74350507 8.15067418 13.92391819 8.82128906 15.10375977 C9.8563036 16.92523547 10.89052587 18.74712109 11.9213562 20.57096863 C15.30655872 26.56030679 18.77220165 32.50150853 22.25 38.4375 C26.37215705 45.48973394 30.47887394 52.55039176 34.5625 59.625 C38.97298617 67.26067945 43.44980785 74.85582378 47.94458008 82.44213867 C52.07728514 89.42275421 56.16962159 96.42619211 60.25 103.4375 C64.1423533 110.11863568 68.03613716 116.79846248 72 123.4375 C72.639375 124.50871094 73.27875 125.57992188 73.9375 126.68359375 C75.54075704 129.26155819 77.18890111 131.77327099 78.890625 134.28515625 C82.09180556 139.05730513 84.93654052 143.99220147 87.75 149 C88.8103304 150.8715855 89.87153904 152.74267369 90.93359375 154.61328125 C91.45421387 155.53061035 91.97483398 156.44793945 92.51123047 157.39306641 C94.5776729 161.01154332 96.68939384 164.60206617 98.8125 168.1875 C105.03284008 178.70676068 111.11185749 189.30769014 117.21191406 199.89697266 C124.74453308 212.96900811 132.33093839 226.00751168 140 239 C144.21194195 234.23867431 147.0628565 228.77950807 150.125 223.25 C151.2944347 221.15951911 152.46501554 219.069679 153.63671875 216.98046875 C154.21083496 215.95614746 154.78495117 214.93182617 155.37646484 213.87646484 C157.5198982 210.07888112 159.71541739 206.31447254 161.9375 202.5625 C165.34019005 196.81643472 168.71739701 191.05656372 172.07446289 185.28369141 C177.15513173 176.54700771 182.27709363 167.83996955 187.5 159.1875 C192.36815162 151.10491466 196.98131579 142.95575114 201.2734375 134.55078125 C207.54387829 122.33612806 214.36334021 110.55930848 221.48828125 98.82421875 C224.35400135 94.09734425 227.12954457 89.33261849 229.8125 84.5 C232.68189274 79.33258301 235.61461809 74.21169572 238.625 69.125 C242.9090699 61.88543188 247.11803923 54.60431856 251.3125 47.3125 C256.70944121 37.93285154 262.16311969 28.58975061 267.70043945 19.29223633 C270.89783914 13.91310613 273.99327393 8.48806109 277 3 C283.08169003 4.10783362 287.66930988 6.94797276 293 10 C293.95390625 10.52851562 294.9078125 11.05703125 295.890625 11.6015625 C312.04249827 20.71398298 326.46883229 32.37091014 340 45 C340.86238281 45.79664063 341.72476562 46.59328125 342.61328125 47.4140625 C355.22672102 59.49813939 365.30330197 73.82610809 373.85351562 89.00927734 C374.8782308 90.78856345 375.98869184 92.51782506 377.109375 94.23828125 C378.90242745 97.39319974 379.81925772 99.3666168 380 103 C378.14396597 108.89082475 374.44458428 113.94406028 371 119 C369.96544704 120.65818535 368.94222651 122.32357431 367.9375 124 C367.22787109 125.16402344 367.22787109 125.16402344 366.50390625 126.3515625 C364.64636543 129.62276426 363.0177058 132.99307994 361.375 136.375 C357.44922677 144.403821 352.905496 151.98755997 348.26171875 159.6171875 C344.8358264 165.24728801 341.50313755 170.92942914 338.1875 176.625 C337.60315186 177.62829346 337.01880371 178.63158691 336.41674805 179.6652832 C332.15405488 186.99474568 327.91904657 194.34002683 323.6875 201.6875 C318.26330821 211.10345357 312.80605578 220.49939077 307.3125 229.875 C306.95420105 230.48650909 306.5959021 231.09801819 306.22674561 231.72805786 C301.18840544 240.32133638 296.10848183 248.88879198 290.92895508 257.39794922 C288.00335066 262.22853524 285.2699614 267.14060843 282.58276367 272.10742188 C279.80589453 277.18228623 276.8986599 282.18152393 274 287.1875 C273.35426025 288.30592285 272.70852051 289.4243457 272.04321289 290.57666016 C268.75668726 296.26530004 265.45171003 301.94248814 262.12109375 307.60546875 C261.19200195 309.18775269 261.19200195 309.18775269 260.24414062 310.80200195 C259.08098358 312.78046922 257.91457102 314.75702799 256.74414062 316.73120117 C254.00122855 321.39720487 251.42027703 326.08758477 249.03125 330.9453125 C245.98451127 337.1347345 242.57472289 343.06515472 239.0625 349 C238.48048828 349.99 237.89847656 350.98 237.29882812 352 C236.19590562 353.87606751 235.09142462 355.75122067 233.98461914 357.625 C233.32969482 358.73875 232.67477051 359.8525 232 361 C231.42108002 361.69367676 230.84216003 362.38735352 230.24569702 363.10205078 C222.22882617 373.92038966 224.11409834 387.04256429 224.28125 399.875 C224.29546412 402.65695483 224.2989771 405.43890044 224.30297852 408.22088623 C224.31726399 414.26974009 224.35748892 420.31798429 224.41479492 426.36657715 C224.49966541 435.34742057 224.54314696 444.32813296 224.57789135 453.30929327 C224.63781116 468.5260698 224.72998281 483.74249343 224.83984375 498.95898438 C225.00334449 521.65345811 225.12342154 544.34805227 225.23490977 567.04283428 C225.27539796 575.2705875 225.31656712 583.49833736 225.35775745 591.72608709 C225.36811859 593.79715002 225.37845679 595.86821306 225.38877213 597.93927622 C225.46125229 612.47683666 225.5398291 627.01435278 225.6227051 641.55185747 C225.93574915 696.61824659 226.09114613 751.68271886 226.0625 806.75 C226.06207577 807.58694838 226.06165154 808.42389675 226.06121445 809.2862072 C226.0505738 829.85748431 226.03119594 850.42874325 226 871 C225.25288757 871.201698 224.50577515 871.403396 223.73602295 871.61120605 C222.75160217 871.87808228 221.7671814 872.1449585 220.75292969 872.41992188 C219.77894226 872.68349487 218.80495483 872.94706787 217.80145264 873.21862793 C214.24508536 874.21055834 210.75712738 875.34575554 207.25 876.5 C200.75550315 878.5851452 194.31173198 880.09040325 187.59765625 881.32421875 C184.92718215 881.82583875 182.29868897 882.3777406 179.65234375 882.984375 C174.96037513 884.03856586 170.25329058 884.84033608 165.5 885.5625 C164.72914063 885.68818359 163.95828125 885.81386719 163.1640625 885.94335938 C148.19992615 888.22622682 133.00122985 888.18652291 117.90039062 888.18530273 C114.89959355 888.18748214 111.89916976 888.20570132 108.8984375 888.22460938 C72.65719127 888.32859563 72.65719127 888.32859563 66 885 C65.99614778 884.27801153 65.99229556 883.55602305 65.98832661 882.81215614 C65.75629242 839.33174426 65.52251978 795.85134199 65.28670079 752.37095046 C65.25793519 747.06688045 65.22918312 741.76281036 65.20043945 736.45874023 C65.19472053 735.40346988 65.18900161 734.34819953 65.1831094 733.26095129 C65.10350739 718.56743728 65.02462796 703.87391955 64.94635253 689.18039842 C64.7063703 644.13851999 64.46077593 599.09668398 64.19443703 554.05495262 C64.18612652 552.64945158 64.18612652 552.64945158 64.17764812 551.21555657 C64.15553229 547.47644685 64.13341362 543.73733715 64.11124645 539.99822773 C64.03336554 526.85294175 63.95937854 513.707639 63.88787842 500.56231689 C63.81263085 486.73794831 63.73071188 472.91363892 63.63887376 459.08937007 C63.59364997 452.26074161 63.55143624 445.43213222 63.5174427 438.60343742 C63.48655385 432.41910466 63.44685455 426.23489391 63.40003324 420.0506618 C63.384831 417.84478331 63.37277406 415.63888021 63.36432528 413.43296552 C63.92489489 389.78005834 63.92489489 389.78005834 55.8125 368.1875 C55.07483398 366.99423096 55.07483398 366.99423096 54.32226562 365.77685547 C52.907372 363.50013771 51.45846139 361.24896102 50 359 C49.27239513 357.84392014 48.54686099 356.68653213 47.82421875 355.52734375 C46.70842429 353.7521076 45.58202705 351.98341152 44.4375 350.2265625 C41.32674158 345.40826821 38.57147939 340.43213351 35.875 335.375 C35.33552734 334.37339844 35.33552734 334.37339844 34.78515625 333.3515625 C33.31224131 330.59329483 31.99080259 327.97240777 31 325 C30.34 325 29.68 325 29 325 C27.47614386 322.35864935 25.95229341 319.71729542 24.4284668 317.07592773 C23.08497317 314.74726036 21.74139965 312.4186393 20.39770508 310.09008789 C16.9347526 304.08870082 13.47327607 298.08647456 10.015625 292.08203125 C4.32856876 282.20909993 -1.3654238 272.34208064 -7.16235352 262.53320312 C-10.90211222 256.19323283 -14.57619896 249.8158598 -18.25 243.4375 C-32.47588992 218.6209225 -32.47588992 218.6209225 -47.27441406 194.14453125 C-50.15678311 189.49599343 -52.79697801 184.74571744 -55.39746094 179.93432617 C-58.22219275 174.76210624 -61.17646032 169.66483925 -64.125 164.5625 C-64.77154541 163.44101563 -65.41809082 162.31953125 -66.08422852 161.1640625 C-70.78464077 153.03536527 -75.57706247 144.96637494 -80.49462891 136.96704102 C-80.9591748 136.20447998 -81.4237207 135.44191895 -81.90234375 134.65625 C-82.30960693 133.99431641 -82.71687012 133.33238281 -83.13647461 132.65039062 C-84 131 -84 131 -84 129 C-84.66 129 -85.32 129 -86 129 C-86.78125 127.6328125 -87.5625 126.265625 -88.34375 124.8984375 C-88.84535645 124.02243896 -89.34696289 123.14644043 -89.86376953 122.24389648 C-90.95959949 120.32251512 -92.04907179 118.39749455 -93.13232422 116.46899414 C-95.55214503 112.17761004 -97.96424925 107.94957738 -100.7890625 103.91015625 C-106.33588441 95.82435845 -106.33588441 95.82435845 -105.4296875 90.90234375 C-103.89574332 87.65423791 -102.0986454 84.9132767 -100 82 C-99.37480469 81.00097656 -98.74960937 80.00195312 -98.10546875 78.97265625 C-85.31255724 58.72806919 -68.06519997 41.32769559 -49 27 C-48.05471436 26.27949463 -48.05471436 26.27949463 -47.09033203 25.54443359 C-39.3574091 19.65426639 -31.69089037 14.41030258 -23 10 C-21.12181118 8.98504559 -19.24682144 7.96414999 -17.375 6.9375 C-16.47523437 6.45023438 -15.57546875 5.96296875 -14.6484375 5.4609375 C-12.88979977 4.4908335 -11.14454985 3.4960339 -9.4140625 2.4765625 C-8.61742187 2.00992187 -7.82078125 1.54328125 -7 1.0625 C-5.948125 0.43021484 -5.948125 0.43021484 -4.875 -0.21484375 C-3 -1 -3 -1 0 0 Z " fill="#FDFDFD" transform="translate(1053,1330)"/>
<path d="M0 0 C54.77098891 10.07786196 114.87229377 36.64241699 160 69 C160.77778809 69.55187988 161.55557617 70.10375977 162.35693359 70.67236328 C171.89903305 77.46977799 181.00320594 84.42641377 189.43359375 92.57421875 C191.87554794 94.98618192 191.87554794 94.98618192 194.34765625 96.70703125 C195.16556641 97.34705078 195.16556641 97.34705078 196 98 C196 98.66 196 99.32 196 100 C196.66 100 197.32 100 198 100 C199.37280273 101.4050293 199.37280273 101.4050293 200.99609375 103.38671875 C203.78439783 106.66771206 206.68575366 109.71781875 209.78515625 112.70703125 C220.58624818 123.13813201 230.12477155 133.6525718 238.62939453 146.03173828 C240.42155883 148.6053807 242.33902591 151.07634162 244.25 153.5625 C248.60212016 159.55131492 252.04605188 166.03916587 255.5625 172.5390625 C257.01065953 175.2147635 258.48792598 177.85766229 260.0625 180.4609375 C276.91124565 208.51953409 286.80245635 241.50403311 290 274 C290.11085938 275.06476563 290.22171875 276.12953125 290.3359375 277.2265625 C290.66963912 281.14981129 290.86806524 285.06587515 291 289 C291.03399902 290.01368652 291.06799805 291.02737305 291.10302734 292.07177734 C292.81044584 352.57679514 269.86188448 407.60738076 232 454 C231.5776709 454.52674316 231.1553418 455.05348633 230.72021484 455.59619141 C223.82036949 464.17129694 216.19124839 472.0159244 208.4375 479.8125 C207.71318787 480.54471268 207.71318787 480.54471268 206.97424316 481.29171753 C200.33034317 487.99158961 193.3856158 494.12684111 186 500 C184.26824912 501.43438575 182.53877344 502.87152684 180.8125 504.3125 C169.30210848 513.69739308 157.47295507 522.21692392 144.77197266 529.91113281 C142.27017442 531.4484737 139.82687209 533.07206451 137.375 534.6875 C132.36561286 537.88545697 127.15249598 540.50964011 121.8125 543.109375 C118.3509871 544.80384725 114.95926501 546.61330641 111.56762695 548.44287109 C104.19232453 552.41917822 96.80707144 555.93371289 89 559 C87.10245688 559.78755968 85.20666434 560.57934831 83.3125 561.375 C81.81396484 561.99568359 81.81396484 561.99568359 80.28515625 562.62890625 C77.95273697 563.60236543 75.62912178 564.58900761 73.30859375 565.58984375 C14.44031979 590.73843988 -51.3263132 600.97598099 -115 602 C-116.38590332 602.02489502 -116.38590332 602.02489502 -117.79980469 602.05029297 C-123.53619401 602.14086754 -129.26398301 602.09492704 -135 602 C-136.08023437 601.98743164 -137.16046875 601.97486328 -138.2734375 601.96191406 C-159.03270151 601.68368541 -179.40059988 599.88387345 -199.98162842 597.25524902 C-201.85032051 597.01892889 -203.7202831 596.79271443 -205.59033203 596.56738281 C-233.40027245 593.18879614 -261.39876973 586.8076749 -288 578 C-289.99726308 577.35505749 -291.99466808 576.71055439 -293.9921875 576.06640625 C-304.02623639 572.80199982 -313.94812762 569.39430926 -323.69921875 565.359375 C-326.943365 564.02332424 -330.21234612 562.78692248 -333.5 561.5625 C-344.24355507 557.43844585 -354.49492969 552.38543355 -364.59863281 546.89990234 C-368.23024863 544.92891335 -371.89155227 543.08125396 -375.625 541.3125 C-390.61525254 533.867812 -404.5393616 524.19764744 -418.06396484 514.39355469 C-419.9326853 513.048453 -421.81584973 511.72734094 -423.70703125 510.4140625 C-431.87943961 504.71979679 -439.5390831 498.59741753 -447 492 C-447.96292969 491.14921875 -448.92585937 490.2984375 -449.91796875 489.421875 C-462.12261912 478.4195721 -473.88331468 466.97103582 -484 454 C-484.91351995 452.89582655 -485.83039806 451.79442578 -486.75 450.6953125 C-524.07137831 405.75694938 -549.61992245 342.30130663 -544.5625 283.1875 C-544.14727273 279.14727273 -544.14727273 279.14727273 -543 278 C-541.11438482 277.90345273 -539.22510545 277.87812759 -537.33702087 277.87974548 C-536.10717972 277.87837082 -534.87733856 277.87699615 -533.61022949 277.87557983 C-532.23486304 277.87911944 -530.85949683 277.88275426 -529.48413086 277.88647461 C-528.04557802 277.88675648 -526.60702504 277.88659876 -525.16847229 277.8860321 C-521.25128857 277.88574411 -517.33413521 277.89164116 -513.41695857 277.89860606 C-509.32766163 277.90483926 -505.23836407 277.90544337 -501.14906311 277.90663147 C-493.40007602 277.90974489 -485.65110297 277.91795841 -477.90212208 277.92798096 C-469.08243791 277.93914178 -460.26275309 277.94465247 -451.44306362 277.94967639 C-433.29536777 277.96014102 -415.14768501 277.97774066 -397 278 C-397.00589142 279.03703316 -397.00589142 279.03703316 -397.01190186 280.09501648 C-397.02757903 283.25474528 -397.03727679 286.41446587 -397.046875 289.57421875 C-397.05315918 290.66182495 -397.05944336 291.74943115 -397.06591797 292.86999512 C-397.08332891 300.51194638 -396.58429246 307.5130865 -395 315 C-394.73884145 316.42019857 -394.47989859 317.84080561 -394.22265625 319.26171875 C-388.13494245 351.72612093 -373.72443082 380.94145387 -351 405 C-349.91243658 406.28810702 -348.82898087 407.57969534 -347.75 408.875 C-332.95879773 425.72616423 -314.10600489 438.56844068 -295 450 C-293.92443848 450.6511377 -293.92443848 450.6511377 -292.82714844 451.31542969 C-253.73543802 474.78488758 -205.47616933 488.797303 -160 492 C-158.90510254 492.08241943 -158.90510254 492.08241943 -157.78808594 492.16650391 C-93.8139189 496.77884815 -21.48133757 488.64610559 34.30078125 454.62890625 C36.8653186 453.08127662 39.46710285 451.69171138 42.125 450.3125 C57.25668943 442.1207436 70.96931071 431.7245067 83.63671875 420.140625 C85.70029213 418.27147093 87.80514613 416.47676638 89.9375 414.6875 C114.77177435 392.89517492 131.93367761 361.72753472 140 330 C140.17789063 329.3296875 140.35578125 328.659375 140.5390625 327.96875 C150.1972666 290.56237221 138.92307139 249.04730115 120.40087891 216.36962891 C114.20842845 205.89491226 106.496372 195.27158404 97.7421875 186.8203125 C96 185 96 185 96 183 C95.34 183 94.68 183 94 183 C92.64613064 181.34997172 91.31321858 179.6825613 90 178 C89.34 177.67 88.68 177.34 88 177 C88 176.34 88 175.68 88 175 C87.42765625 174.74992187 86.8553125 174.49984375 86.265625 174.2421875 C83.67936022 172.82420095 81.88388587 171.16189106 79.75 169.125 C69.12724466 159.40963761 57.39382429 151.28174329 45 144 C44.27256592 143.55060059 43.54513184 143.10120117 42.7956543 142.63818359 C36.55907615 138.80761067 30.17474483 135.50641762 23.5625 132.375 C22.60279297 131.9109375 21.64308594 131.446875 20.65429688 130.96875 C14.93168267 128.24039252 9.25527613 125.95117658 3.19506836 124.07666016 C0.45289703 122.7316512 0.10046047 121.80614593 -1 119 C-1.24888897 116.68616295 -1.24888897 116.68616295 -1.24723816 114.09066772 C-1.25143265 113.10360336 -1.25562714 112.116539 -1.25994873 111.0995636 C-1.25151947 109.48479378 -1.25151947 109.48479378 -1.24291992 107.83740234 C-1.24481827 106.69886307 -1.24671661 105.56032379 -1.24867249 104.38728333 C-1.25238036 100.62009824 -1.24167674 96.85310548 -1.23046875 93.0859375 C-1.22927698 90.473277 -1.22882378 87.86061608 -1.2290802 85.24795532 C-1.2281442 79.77204998 -1.2194675 74.29620012 -1.20581055 68.8203125 C-1.19007002 62.48550344 -1.18481302 56.15075507 -1.1855461 49.81592786 C-1.18615593 43.72370745 -1.18094745 37.63151005 -1.17275429 31.5392952 C-1.16956374 28.9452387 -1.16759932 26.3511804 -1.16686058 23.75712204 C-1.16470206 20.13931955 -1.15596884 16.52159455 -1.14526367 12.90380859 C-1.14571686 11.82324692 -1.14617004 10.74268524 -1.14663696 9.62937927 C-1.14237198 8.64795456 -1.13810699 7.66652985 -1.13371277 6.65536499 C-1.13203692 5.79960562 -1.13036108 4.94384624 -1.12863445 4.06215477 C-1 2 -1 2 0 0 Z " fill="#FDFDFD" transform="translate(1294,1736)"/>
<path d="M0 0 C3.79276535 0.00535805 7.58541206 0.0000222 11.37817383 -0.00634766 C29.95138763 -0.0125502 48.47445552 0.20030937 66.92700195 2.50537109 C68.02077148 2.63766113 69.11454102 2.76995117 70.24145508 2.90625 C95.81222946 6.05221655 121.07347535 10.45455172 145.92553711 17.32128906 C149.00926898 18.17022472 152.09856042 18.99657212 155.1887207 19.82177734 C168.0281809 23.28718315 180.49335708 27.25657555 192.86450195 32.13037109 C193.67725586 32.44619141 194.49000977 32.76201172 195.32739258 33.08740234 C212.24015616 39.66386038 228.83127219 46.83790386 244.96606445 55.15234375 C246.20110593 55.78860611 247.43799915 56.42129114 248.67700195 57.04980469 C259.70271234 62.65030944 270.15174166 69.1208164 280.60766602 75.71337891 C282.39024477 76.83260079 284.18402089 77.93398789 285.98168945 79.02880859 C299.14156769 87.10512016 311.65449034 96.51822677 322.86450195 107.13037109 C324.19193337 108.30374858 325.52513158 109.47064014 326.86450195 110.63037109 C337.82845739 120.20732012 348.49174406 129.95837843 357.86450195 141.13037109 C358.82356445 142.25572266 358.82356445 142.25572266 359.80200195 143.40380859 C370.99800897 156.78139051 381.44106083 170.83645248 389.86450195 186.13037109 C390.32566406 186.95988281 390.78682617 187.78939453 391.26196289 188.64404297 C406.07678108 215.49770822 415.67827525 243.06198779 420.47900391 273.33056641 C420.69694718 275.143926 420.69694718 275.143926 421.86450195 276.13037109 C422.19450195 279.43037109 422.52450195 282.73037109 422.86450195 286.13037109 C374.02450195 286.13037109 325.18450195 286.13037109 274.86450195 286.13037109 C274.20450195 282.83037109 273.54450195 279.53037109 272.86450195 276.13037109 C271.77742306 272.70462896 271.77742306 272.70462896 270.62329102 269.30126953 C269.89131148 267.20707326 269.22490367 265.10298134 268.57543945 262.98193359 C262.73920005 244.30948066 254.2926599 227.98784167 242.86450195 212.13037109 C242.43476074 211.52418945 242.00501953 210.91800781 241.56225586 210.29345703 C230.72308853 195.15018902 216.81454886 181.21517556 201.86450195 170.13037109 C200.86290039 169.37369141 199.86129883 168.61701172 198.8293457 167.83740234 C156.50439405 136.40648125 106.47222628 118.87592622 54.63110352 111.53271484 C52.41008361 111.20971442 50.19468783 110.84814899 47.98168945 110.47412109 C31.2807331 107.68378932 13.76593441 107.78226972 -3.13549805 108.13037109 C-4.01012695 108.14293945 -4.88475586 108.15550781 -5.78588867 108.16845703 C-71.31835206 109.25109045 -141.55011841 129.5247243 -193.13549805 171.13037109 C-193.65853516 171.55189453 -194.18157227 171.97341797 -194.72045898 172.40771484 C-228.00715778 199.47645045 -257.72469109 237.67439268 -262.51806641 281.64648438 C-262.69994507 283.5256958 -262.69994507 283.5256958 -262.88549805 285.44287109 C-262.94931671 286.09688904 -263.01313538 286.75090698 -263.07888794 287.42474365 C-267.17364275 330.37304155 -254.54061719 371.35050171 -227.1628418 404.77490234 C-224.13389455 408.29408382 -220.99705108 411.71060502 -217.82299805 415.09912109 C-216.13549805 417.13037109 -216.13549805 417.13037109 -216.13549805 419.13037109 C-215.47549805 419.13037109 -214.81549805 419.13037109 -214.13549805 419.13037109 C-211.71138357 421.40756954 -209.44408894 423.80409416 -207.15893555 426.22021484 C-199.42457488 434.21420952 -190.9192274 439.77535598 -181.29956055 445.26708984 C-178.0444658 447.18397897 -174.90974747 449.23215101 -171.76049805 451.31787109 C-159.95844638 458.97705381 -147.73961524 466.07743356 -134.58862305 471.14208984 C-133.94474136 471.39320023 -133.30085968 471.64431061 -132.63746643 471.9030304 C-129.47984169 473.12884286 -126.32156371 474.30490239 -123.12158203 475.41870117 C-113.7323736 478.96711811 -109.43853333 483.74653756 -104.13549805 492.13037109 C-102.98184025 493.79284329 -101.82337684 495.45199656 -100.65893555 497.10693359 C-99.04335487 499.48072094 -97.43890868 501.86174287 -95.83569336 504.24389648 C-92.97975621 508.47449473 -90.03901254 512.55135778 -86.88549805 516.56787109 C-80.89175112 525.23465068 -82.97285402 538.49089451 -82.9675293 548.60693359 C-82.9643054 550.0679833 -82.96094053 551.52903271 -82.95744324 552.99008179 C-82.9515034 556.03066761 -82.94959823 559.07122521 -82.95019531 562.11181641 C-82.95029722 565.9825053 -82.93659252 569.85301195 -82.9194231 573.72365761 C-82.90824239 576.7333355 -82.90627788 579.74296995 -82.90680504 582.75266647 C-82.90563609 584.17902637 -82.90127635 585.60538781 -82.89347267 587.03172684 C-82.81113673 603.61766294 -82.81113673 603.61766294 -85.13549805 610.13037109 C-87.93162284 611.52843349 -89.57442885 610.51071836 -92.41481018 609.56797791 C-93.13861374 609.31915359 -93.8624173 609.07032928 -94.6081543 608.81396484 C-95.36406357 608.5604274 -96.11997284 608.30688995 -96.89878845 608.04566956 C-99.3342732 607.22670854 -101.76606322 606.39730662 -104.19799805 605.56787109 C-105.77915703 605.03531278 -107.36053521 604.5034048 -108.94213867 603.97216797 C-122.45546201 599.42039987 -135.90206894 594.68430462 -149.30175781 589.80859375 C-159.87095227 585.96508832 -170.48224382 582.28523052 -181.16894531 578.78125 C-188.66454379 576.31934874 -195.99633062 573.85539342 -203.01049805 570.19287109 C-206.53118587 568.39535222 -209.98983637 566.74585471 -213.69799805 565.38037109 C-226.02049109 560.61805494 -237.60982526 553.53804478 -249.0144043 546.91943359 C-251.83861563 545.300549 -254.69202278 543.7698926 -257.57299805 542.25537109 C-275.35941073 532.5843333 -292.14758281 519.95763257 -307.34667969 506.64819336 C-308.72170797 505.48147426 -310.1216976 504.34412438 -311.53173828 503.2199707 C-318.37042132 497.76191008 -324.63989853 491.93830268 -330.79199219 485.73461914 C-332.35277226 484.16288797 -333.9242751 482.60242592 -335.49682617 481.04248047 C-336.49551676 480.04247188 -337.49358874 479.04184502 -338.4909668 478.04052734 C-339.38452881 477.14470947 -340.27809082 476.2488916 -341.19873047 475.32592773 C-343.13549805 473.13037109 -343.13549805 473.13037109 -343.13549805 471.13037109 C-343.97081055 470.80746094 -343.97081055 470.80746094 -344.82299805 470.47802734 C-347.88832586 468.69164543 -349.9041205 466.26726806 -352.13549805 463.56787109 C-352.61188721 462.99560791 -353.08827637 462.42334473 -353.57910156 461.83374023 C-380.88387837 428.5027747 -399.42147762 389.23753547 -408.13549805 347.13037109 C-408.31483887 346.3147168 -408.49417969 345.4990625 -408.67895508 344.65869141 C-421.02888535 286.84581026 -404.96987422 224.53438839 -374.01611328 175.43676758 C-368.52542563 166.97233606 -362.49532061 158.9572224 -356.13549805 151.13037109 C-355.65870605 150.54320312 -355.18191406 149.95603516 -354.69067383 149.35107422 C-343.62340643 135.82398364 -331.75310164 122.48262632 -318.45581055 111.11474609 C-316.68561771 109.6008438 -314.93365023 108.06560406 -313.19018555 106.52099609 C-303.62402036 98.09399913 -293.49280272 90.55283328 -283.13549805 83.13037109 C-282.54945801 82.7065918 -281.96341797 82.2828125 -281.35961914 81.84619141 C-266.85345444 71.37819313 -251.56016382 61.82611513 -235.37329102 54.19189453 C-232.80662656 52.97436703 -230.25444987 51.72878286 -227.7019043 50.48193359 C-208.24810558 41.0164661 -188.67142392 32.94534242 -168.13549805 26.13037109 C-167.30518066 25.85451172 -166.47486328 25.57865234 -165.61938477 25.29443359 C-160.14862394 23.49130296 -154.65209472 21.78740427 -149.13549805 20.13037109 C-148.37205078 19.89640625 -147.60860352 19.66244141 -146.82202148 19.42138672 C-120.81152986 11.53287035 -93.15111243 6.105609 -66.13549805 3.13037109 C-65.29148437 3.035625 -64.4474707 2.94087891 -63.57788086 2.84326172 C-60.91077186 2.55073375 -58.24266149 2.27354744 -55.57299805 2.00537109 C-54.44148315 1.89153076 -54.44148315 1.89153076 -53.28710938 1.77539062 C-35.55206964 0.1454745 -17.79746432 -0.02984033 0 0 Z " fill="#FDFDFD" transform="translate(1185.135498046875,1183.86962890625)"/>
<path d="M0 0 C2.46364227 0.05967114 4.92629991 0.18041809 7.38476562 0.35083008 C8.72373234 0.40370072 10.06290547 0.45155564 11.40222168 0.49467468 C14.86409919 0.61856743 18.31938332 0.80680701 21.77740479 1.00969696 C24.89893825 1.18125073 28.02222485 1.28726304 31.14648438 1.39624023 C38.53221039 1.66790064 45.91054741 2.04641963 53.29101562 2.43286133 C55.98181797 2.56812892 58.67264361 2.7027647 61.36352539 2.83642578 C66.25151793 3.07991808 71.13936989 3.32594855 76.02706623 3.57531643 C85.57131883 4.06210828 95.11648258 4.52856021 104.66210938 4.98754883 C105.38582859 5.02236296 106.10954781 5.05717709 106.85519791 5.09304619 C109.72077623 5.23085812 112.58635827 5.36859238 115.45194817 5.5061636 C122.78253947 5.85814887 130.11295722 6.21367853 137.44335938 6.56958008 C138.59952255 6.62568451 139.75568573 6.68178894 140.94688416 6.73959351 C143.56159635 6.8664811 146.17630692 6.99340201 148.79101562 7.12036133 C148.06083525 11.21970462 146.88925154 14.02410545 144.72070312 17.60083008 C144.0792334 18.66906006 143.43776367 19.73729004 142.77685547 20.83789062 C142.43338074 21.40244965 142.08990601 21.96700867 141.73602295 22.54867554 C139.89583487 25.57410596 138.07996025 28.61412653 136.25976562 31.65161133 C135.88540375 32.27472702 135.51104187 32.89784271 135.12533569 33.5398407 C131.39732329 39.75280917 127.77322486 46.02407424 124.16601562 52.30786133 C119.40185341 60.59501252 114.61540522 68.86811597 109.79101562 77.12036133 C104.92986018 85.43780514 100.09960407 93.77241876 95.29101562 102.12036133 C87.59984094 115.47051798 79.83618602 128.77769261 72.06152344 142.0793457 C68.57160848 148.05137164 65.08578079 154.02574989 61.60595703 160.00366211 C60.36453731 162.13548404 59.12196994 164.26663796 57.87841797 166.3972168 C55.92853665 169.74007966 53.98327895 173.08556686 52.04101562 176.43286133 C51.41356445 177.5135791 50.78611328 178.59429688 50.13964844 179.70776367 C45.82747006 187.18758599 41.72613688 194.75406632 37.93457031 202.51220703 C37.57395508 203.22852295 37.21333984 203.94483887 36.84179688 204.68286133 C36.53927002 205.30290039 36.23674316 205.92293945 35.92504883 206.56176758 C34.49384217 208.5287909 33.00747761 209.19064413 30.79101562 210.12036133 C30.14519531 209.54930664 29.499375 208.97825195 28.83398438 208.38989258 C19.67454971 200.50851856 9.85073866 193.79519682 -0.20898438 187.12036133 C-1.44841797 186.2935083 -1.44841797 186.2935083 -2.71289062 185.44995117 C-19.61753189 174.1967246 -36.89152623 163.90206594 -55.20898438 155.12036133 C-55.98306641 154.74637207 -56.75714844 154.37238281 -57.5546875 153.98706055 C-67.00062195 149.42779776 -76.45734635 144.99376645 -86.20898438 141.12036133 C-85.62681805 137.28744646 -84.5197833 134.54882526 -82.54101562 131.22583008 C-81.98486572 130.28304199 -81.42871582 129.34025391 -80.85571289 128.36889648 C-80.25041748 127.35875488 -79.64512207 126.34861328 -79.02148438 125.30786133 C-77.73486213 123.132177 -76.44840837 120.95639303 -75.16210938 118.78051758 C-74.50275391 117.6707959 -73.84339844 116.56107422 -73.1640625 115.41772461 C-70.17423449 110.37519001 -67.22239018 105.31073884 -64.27148438 100.24536133 C-63.69760986 99.26204834 -63.12373535 98.27873535 -62.5324707 97.265625 C-57.59731879 88.80448294 -52.70383844 80.31957311 -47.81469727 71.83178711 C-43.07023934 63.60003904 -38.29069905 55.38932573 -33.49389648 47.18798828 C-30.39127163 41.87829187 -27.30571057 36.55930322 -24.24414062 31.22583008 C-23.91159271 30.64705109 -23.5790448 30.06827209 -23.23641968 29.47195435 C-21.63622004 26.68662741 -20.03849531 23.89994358 -18.4453125 21.1105957 C-17.86330078 20.09674805 -17.28128906 19.08290039 -16.68164062 18.03833008 C-16.17898682 17.15943115 -15.67633301 16.28053223 -15.15844727 15.375 C-14.51512451 14.30096924 -13.87180176 13.22693848 -13.20898438 12.12036133 C-12.7808847 11.19944199 -12.35278503 10.27852264 -11.91171265 9.32969666 C-8.86492829 3.4480367 -6.86780293 0.44559916 0 0 Z " fill="#FCFCFC" transform="translate(1491.208984375,1075.879638671875)"/>
<path d="M0 0 C4.29908207 -0.15269394 8.59675773 -0.2686466 12.89801979 -0.33768082 C14.91480252 -0.37612999 16.93098069 -0.44297305 18.9469986 -0.51052094 C27.7591666 -0.59489858 27.7591666 -0.59489858 30.9227066 1.26963043 C33.42544877 3.80515089 35.04757725 6.72050027 36.04991913 10.11511993 C38.20025539 16.31757176 41.6136187 21.70565636 44.96007538 27.32605743 C46.26762839 29.59263595 47.57226658 31.86089821 48.87413788 34.13074493 C52.79930371 40.94099107 56.81234377 47.69803414 60.83507538 54.45105743 C66.62823965 64.18115285 72.29444537 73.97442383 77.888237 83.81964874 C84.21795046 94.95414932 90.72024932 105.97989459 97.27648163 116.98230743 C98.4835166 119.01355522 99.69054781 121.04480525 100.89757538 123.07605743 C101.89700165 124.74668243 101.89700165 124.74668243 102.91661835 126.45105743 C103.87978973 128.07527618 103.87978973 128.07527618 104.86241913 129.73230743 C105.73628265 131.19893829 105.73628265 131.19893829 106.62779999 132.69519806 C107.89757538 135.07605743 107.89757538 135.07605743 107.89757538 137.07605743 C107.17916473 137.39244171 106.46075409 137.70882599 105.72057343 138.03479767 C97.43424561 141.6886063 89.16057448 145.3698163 80.89757538 149.07605743 C79.98250214 149.48597931 79.06742889 149.89590118 78.12462616 150.31824493 C48.9399108 163.4837554 19.93625464 180.26389545 -3.98084259 201.72473907 C-7.7861709 205.07605743 -7.7861709 205.07605743 -11.10242462 205.07605743 C-12.61023712 203.19715118 -12.61023712 203.19715118 -14.22742462 200.51355743 C-14.84875275 199.49261993 -15.47008087 198.47168243 -16.11023712 197.41980743 C-16.767659 196.31636993 -17.42508087 195.21293243 -18.10242462 194.07605743 C-18.7392215 193.03449493 -19.37601837 191.99293243 -20.03211212 190.91980743 C-25.5844906 181.78457341 -30.90676304 172.51702848 -36.23889923 163.25208282 C-40.52498046 155.8050899 -44.83211682 148.37096025 -49.16492462 140.95105743 C-49.7388797 139.96806671 -50.31283478 138.98507599 -50.90418243 137.97229767 C-52.63642941 135.00659152 -54.36930251 132.04125224 -56.10242462 129.07605743 C-58.415745 125.1182027 -60.72838211 121.15995081 -63.03992462 117.20105743 C-63.90460358 115.72028717 -63.90460358 115.72028717 -64.78675079 114.20960236 C-69.04444142 106.90994352 -73.26432288 99.58901586 -77.47742462 92.26355743 C-83.27136991 82.19361276 -89.16860114 72.18876873 -95.108284 62.20423126 C-100.43064251 53.24384599 -105.66016403 44.232544 -110.84680939 35.19300079 C-113.61812632 30.36603874 -116.40181118 25.54988356 -119.26258087 20.77527618 C-119.73647247 19.98266388 -120.21036407 19.19005157 -120.69861603 18.37342072 C-121.56364085 16.93213254 -122.43402351 15.49403997 -123.31092072 14.05994415 C-126.10242462 9.40583125 -126.10242462 9.40583125 -126.10242462 6.07605743 C-114.44271772 5.22587047 -102.78229802 4.68280893 -91.10242462 4.20105743 C-77.80712475 3.64704595 -64.51451466 3.05824687 -51.22475815 2.38332748 C-49.15996248 2.2787332 -47.09511721 2.1751813 -45.03025055 2.0719986 C-44.34579046 2.03778116 -43.66133038 2.00356373 -42.95612907 1.9683094 C-41.57300423 1.89918158 -40.18987766 1.83008852 -38.80674934 1.7610302 C-35.45185353 1.59296715 -32.09724702 1.42110109 -28.74280548 1.24408722 C-19.16406889 0.73918302 -9.58555695 0.34676766 0 0 Z " fill="#FCFCFC" transform="translate(871.102424621582,1076.923942565918)"/>
<path d="M0 0 C0 33.33 0 66.66 0 101 C-34.30236023 101.04030303 -34.30236023 101.04030303 -48.7890625 101.04882812 C-58.7516329 101.05473832 -68.71419478 101.06164739 -78.67675781 101.07543945 C-85.93571074 101.08548378 -93.19465669 101.09187634 -100.45361638 101.09408849 C-104.28840961 101.09537924 -108.1231829 101.09835919 -111.95796967 101.10573006 C-115.58586844 101.1126451 -119.21373954 101.11458641 -122.84164429 101.11310768 C-124.77010456 101.11350327 -126.69856199 101.11881612 -128.62701416 101.12442017 C-139.14012659 101.11243153 -149.45583935 100.52720803 -160 100 C-160 69.97 -160 39.94 -160 9 C-146.635 9.495 -146.635 9.495 -133 10 C-125.51799389 10.10931915 -118.04415638 10.19566415 -110.5625 10.1875 C-109.60130249 10.18722809 -108.64010498 10.18695618 -107.64978027 10.18667603 C-91.68713348 10.16609966 -75.89015508 9.63027557 -60 8 C-58.96681641 7.89816406 -57.93363281 7.79632812 -56.86914062 7.69140625 C-43.22215253 6.31395325 -29.76879595 4.21250328 -16.29882812 1.62573242 C-14.63110352 1.31019409 -14.63110352 1.31019409 -12.9296875 0.98828125 C-11.46378174 0.70271362 -11.46378174 0.70271362 -9.96826172 0.41137695 C-7 0 -7 0 0 0 Z " fill="#FAFAFA" transform="translate(1280,2339)"/>
<path d="M0 0 C54.77098891 10.07786196 114.87229377 36.64241699 160 69 C160.77778809 69.55187988 161.55557617 70.10375977 162.35693359 70.67236328 C171.89903305 77.46977799 181.00320594 84.42641377 189.43359375 92.57421875 C191.87554794 94.98618192 191.87554794 94.98618192 194.34765625 96.70703125 C194.89292969 97.13371094 195.43820312 97.56039063 196 98 C196 98.66 196 99.32 196 100 C196.66 100 197.32 100 198 100 C199.37280273 101.4050293 199.37280273 101.4050293 200.99609375 103.38671875 C203.78439783 106.66771206 206.68575366 109.71781875 209.78515625 112.70703125 C220.56470463 123.11732644 230.10177472 133.61364982 238.59423828 145.96582031 C240.58973994 148.85337151 242.66905185 151.6734715 244.75 154.5 C246.55175176 156.97545024 248.3011896 159.4517844 250 162 C249.67 162.99 249.34 163.98 249 165 C248.41734375 164.175 247.8346875 163.35 247.234375 162.5 C233.46834366 143.07067891 233.46834366 143.07067891 218 125 C216.7934375 123.65808594 216.7934375 123.65808594 215.5625 122.2890625 C210.13456169 116.26340479 204.53621296 110.43315309 198.8125 104.6875 C197.83301392 103.70112549 197.83301392 103.70112549 196.83374023 102.69482422 C192.38620518 98.26128745 187.77601629 94.07621177 183 90 C182.40888428 89.49154541 181.81776855 88.98309082 181.20874023 88.45922852 C170.10960946 78.99054845 158.28680018 70.84551645 146 63 C145.02909424 62.37448242 145.02909424 62.37448242 144.03857422 61.73632812 C113.25230847 42.03721491 78.9934101 28.6799769 44.97955322 15.75378418 C43.17427733 15.06636219 41.37096579 14.37378711 39.56787109 13.68066406 C36.71666179 12.58646295 33.86012027 11.50815454 31 10.4375 C29.88588745 10.00884644 29.88588745 10.00884644 28.74926758 9.5715332 C19.65754449 6.23503958 10.5168409 4.37921023 1 2 C1.33 41.27 1.66 80.54 2 121 C4.64 121.99 7.28 122.98 10 124 C10 124.33 10 124.66 10 125 C5.44714073 124.56222507 2.32193832 124.25717721 -1 121 C-1.49498463 118.77797604 -1.49498463 118.77797604 -1.48774719 116.13499451 C-1.49469101 115.1324765 -1.50163483 114.1299585 -1.50878906 113.09706116 C-1.495979 111.99825119 -1.48316895 110.89944122 -1.4699707 109.76733398 C-1.4721611 108.60943359 -1.4743515 107.4515332 -1.47660828 106.25854492 C-1.47892492 102.4207733 -1.45263284 98.58376346 -1.42578125 94.74609375 C-1.42086011 92.08715086 -1.41741018 89.4282452 -1.41581726 86.76930237 C-1.40936827 81.193186 -1.38811499 75.61728889 -1.35668945 70.04125977 C-1.31638036 62.87944086 -1.2989995 55.71776479 -1.28938007 48.55584621 C-1.28019478 41.74423922 -1.25951651 34.93267202 -1.23828125 28.12109375 C-1.2348855 26.81329893 -1.23148975 25.50550411 -1.2279911 24.15807915 C-1.21645992 20.47309302 -1.19794606 16.78821465 -1.17700195 13.10327148 C-1.17431305 12.00243729 -1.17162415 10.90160309 -1.16885376 9.76741028 C-1.16169846 8.7677121 -1.15454315 7.76801392 -1.14717102 6.73802185 C-1.14289754 5.86621497 -1.13862406 4.99440809 -1.13422108 4.09618282 C-1 2 -1 2 0 0 Z " fill="#949494" transform="translate(1294,1736)"/>
<path d="M0 0 C3.84476289 0.61293951 6.91811706 1.76066051 10.40234375 3.484375 C11.44712891 4.00112793 12.49191406 4.51788086 13.56835938 5.05029297 C15.23608398 5.89164795 15.23608398 5.89164795 16.9375 6.75 C18.08669922 7.32766113 19.23589844 7.90532227 20.41992188 8.50048828 C35.22328295 16.0347058 49.49181898 24.32482242 63 34 C63.77811035 34.55204102 64.5562207 35.10408203 65.35791016 35.67285156 C74.89934249 42.47064473 84.00341484 49.42661567 92.43359375 57.57421875 C94.87554794 59.98618192 94.87554794 59.98618192 97.34765625 61.70703125 C97.89292969 62.13371094 98.43820312 62.56039063 99 63 C99 63.66 99 64.32 99 65 C99.66 65 100.32 65 101 65 C102.37280273 66.4050293 102.37280273 66.4050293 103.99609375 68.38671875 C106.78439783 71.66771206 109.68575366 74.71781875 112.78515625 77.70703125 C123.56470463 88.11732644 133.10177472 98.61364982 141.59423828 110.96582031 C143.58973994 113.85337151 145.66905185 116.6734715 147.75 119.5 C149.55175176 121.97545024 151.3011896 124.4517844 153 127 C152.67 127.99 152.34 128.98 152 130 C151.41734375 129.175 150.8346875 128.35 150.234375 127.5 C136.46834366 108.07067891 136.46834366 108.07067891 121 90 C120.195625 89.10539062 119.39125 88.21078125 118.5625 87.2890625 C113.13456169 81.26340479 107.53621296 75.43315309 101.8125 69.6875 C101.15950928 69.02991699 100.50651855 68.37233398 99.83374023 67.69482422 C95.38620518 63.26128745 90.77601629 59.07621177 86 55 C85.40888428 54.49154541 84.81776855 53.98309082 84.20874023 53.45922852 C73.10960946 43.99054845 61.28680018 35.84551645 49 28 C48.35272949 27.58298828 47.70545898 27.16597656 47.03857422 26.73632812 C32.31660634 17.3162278 16.2003359 8.54606596 0 2 C0 1.34 0 0.68 0 0 Z " fill="#8F8F8F" transform="translate(1391,1771)"/>
<path d="M0 0 C4.47140529 1.57011178 8.28745209 3.95278693 12.25 6.5 C29.67964118 17.52453021 47.23793347 27.40685071 66.35498047 35.21142578 C71.36349013 37.26158579 76.18513842 39.52691201 81 42 C81 42.99 81 43.98 81 45 C80.38769531 44.59136719 79.77539062 44.18273438 79.14453125 43.76171875 C74.82327429 41.34074125 70.28887908 39.62959762 65.6875 37.8125 C56.18947993 33.98634613 47.03530346 29.80993768 38 25 C37.29987793 24.63326172 36.59975586 24.26652344 35.87841797 23.88867188 C26.72533028 19.07490118 17.98458867 13.82693674 9.4375 8 C8.60951904 7.43579346 7.78153809 6.87158691 6.9284668 6.2902832 C1.13188636 2.26377272 1.13188636 2.26377272 0 0 Z " fill="#919191" transform="translate(992,1623)"/>
<path d="M0 0 C0.66 0.33 1.32 0.66 2 1 C-8.23 11.23 -18.46 21.46 -29 32 C-29.66 31.67 -30.32 31.34 -31 31 C-13.51524078 11.85847848 -13.51524078 11.85847848 -3.62890625 3.41015625 C-2.37392427 2.32370902 -1.17374345 1.17374345 0 0 Z " fill="#CCCCCC" transform="translate(871,1291)"/>
<path d="M0 0 C0.66 0.33 1.32 0.66 2 1 C-6.58 9.58 -15.16 18.16 -24 27 C-24.66 26.67 -25.32 26.34 -26 26 C-17.93283957 16.81738035 -9.64746421 7.561526 0 0 Z " fill="#C5C5C5" transform="translate(996,1363)"/>
<path d="M0 0 C2.03833424 1.2739589 4.03852126 2.61061923 6 4 C6 4.66 6 5.32 6 6 C6.66 6 7.32 6 8 6 C9.19921875 7.22265625 9.19921875 7.22265625 10.6875 9.0625 C16.66763621 16.12877206 23.4184 22.500908 30 29 C29.01 29.33 28.02 29.66 27 30 C26.55914063 29.48695312 26.11828125 28.97390625 25.6640625 28.4453125 C19.40797322 21.32631436 12.73019735 14.6850224 5.94580078 8.07080078 C5.17864746 7.31524902 4.41149414 6.55969727 3.62109375 5.78125 C2.9242749 5.10126953 2.22745605 4.42128906 1.50952148 3.72070312 C0 2 0 2 0 0 Z " fill="#888888" transform="translate(1484,1830)"/>
<path d="M0 0 C3.63 2.31 7.26 4.62 11 7 C8 8 8 8 5.95703125 7.109375 C5.24933594 6.66078125 4.54164062 6.2121875 3.8125 5.75 C3.09707031 5.31171875 2.38164063 4.8734375 1.64453125 4.421875 C1.10183594 3.95265625 0.55914063 3.4834375 0 3 C0 2.01 0 1.02 0 0 Z " fill="#8B8B8B" transform="translate(1440,1796)"/>
<path d="M0 0 C2 1 2 1 2 1 Z " fill="#000000" transform="translate(1294,1867)"/>
</svg>
