<?xml version="1.0" encoding="UTF-8"?>
<svg version="1.1" xmlns="http://www.w3.org/2000/svg" width="535" height="618">
<path d="M0 0 C13.86 0 27.72 0 42 0 C42.33 20.13 42.66 40.26 43 61 C52.405 57.535 52.405 57.535 62 54 C65.46398007 52.87456188 68.87470037 51.78653509 72.375 50.8125 C73.23383789 50.57112305 74.09267578 50.32974609 74.97753906 50.08105469 C81.18709992 48.38589649 87.43145989 46.97447334 93.75 45.75 C94.52778809 45.59893799 95.30557617 45.44787598 96.10693359 45.29223633 C111.11556917 42.55961044 125.8630632 41.65108548 141.09960938 41.68432617 C144.10063476 41.68747444 147.10065872 41.66396591 150.1015625 41.63867188 C168.34743932 41.57834645 186.31364281 43.53288711 204.125 47.5625 C205.21466064 47.80500488 206.30432129 48.04750977 207.42700195 48.29736328 C220.98558378 51.47868503 233.90585158 56.27333179 247 61 C247 40.87 247 20.74 247 0 C260.86 0 274.72 0 289 0 C288.82855469 5.8059375 288.65710938 11.611875 288.48046875 17.59375 C288.41865895 21.30401873 288.36319218 25.01228962 288.33007812 28.72265625 C288.27707343 34.59560148 288.20255168 40.46197053 287.98852539 46.33154297 C286.07619393 69.10854263 286.07619393 69.10854263 294.55761719 89.02880859 C298.85599285 92.65678751 303.4369467 95.3226477 308.50485229 97.73075867 C312.1210309 99.57025031 314.8465364 101.93601315 317.875 104.625 C318.865 105.47964844 319.855 106.33429688 320.875 107.21484375 C329.70429973 115.03483558 338.49732874 122.87374384 346 132 C346.80308594 132.91523438 347.60617187 133.83046875 348.43359375 134.7734375 C362.25708552 150.57278435 392 184.97860043 392 207 C352.89982283 210.47827393 352.89982283 210.47827393 343.80224609 205.11474609 C339.24503262 200.17401958 337.19672508 194.20179382 335.11376953 187.90283203 C333.3505702 183.30738266 330.53389066 179.77832329 327.4375 176 C326.89899414 175.31752197 326.36048828 174.63504395 325.80566406 173.93188477 C324.22382662 171.9372791 322.6180846 169.96527692 321 168 C320.21230225 167.0409375 320.21230225 167.0409375 319.40869141 166.0625 C310.40974303 155.18238403 301.1160231 145.89281848 290 137 C289.67 173.63 289.34 210.26 289 248 C248.41 248 207.82 248 166 248 C166 261.2 166 274.4 166 288 C169.06715805 287.99777939 172.1343161 287.99555878 175.29441833 287.99327087 C203.39080808 287.97339133 231.48719591 287.95845258 259.58359089 287.94893467 C263.26251438 287.94768389 266.94143786 287.94638958 270.62036133 287.94506836 C271.71901879 287.94467489 271.71901879 287.94467489 272.83987135 287.94427348 C284.71497418 287.93991667 296.5900722 287.93202906 308.46517216 287.9228472 C320.64106031 287.91351097 332.81694591 287.90794446 344.99283749 287.90591151 C352.51205311 287.90453621 360.03125511 287.9001853 367.55046654 287.89208353 C373.30649272 287.88619574 379.06251008 287.88554096 384.81853867 287.88689232 C387.18696616 287.8866158 389.55539415 287.88460815 391.92381859 287.88079453 C395.14209787 287.87586397 398.36031754 287.87699934 401.57859802 287.87974548 C403.00415226 287.87537622 403.00415226 287.87537622 404.45850557 287.87091869 C410.88587879 287.88587879 410.88587879 287.88587879 412 289 C412.1267186 291.66493047 412.18829647 294.30238252 412.203125 296.96875 C412.21013931 297.78759171 412.21715363 298.60643341 412.22438049 299.4500885 C412.24206255 302.13344695 412.24824833 304.81658515 412.25 307.5 C412.25101212 308.86788162 412.25101212 308.86788162 412.25204468 310.26339722 C412.18900301 363.77045045 396.65288826 418.36461133 365 462 C364.24074219 463.05058594 363.48148437 464.10117187 362.69921875 465.18359375 C348.570618 484.33895055 332.66227266 502.17355889 314 517 C312.92105469 517.91458984 312.92105469 517.91458984 311.8203125 518.84765625 C289.74021616 537.35250567 263.77870038 550.77540531 237 561 C236.21206055 561.30131836 235.42412109 561.60263672 234.61230469 561.91308594 C213.27394584 569.90438133 188.87205009 576 166 576 C166 589.86 166 603.72 166 618 C152.14 618 138.28 618 124 618 C124 604.14 124 590.28 124 576 C119.05 575.67 114.1 575.34 109 575 C105.2770815 574.50445795 101.62632868 573.97633486 97.9375 573.3125 C96.96707764 573.13952393 95.99665527 572.96654785 94.99682617 572.78833008 C50.4588204 564.50428261 8.79803144 544.97235203 -26 516 C-26.78044678 515.35490479 -26.78044678 515.35490479 -27.57666016 514.69677734 C-39.34285796 504.9396909 -50.41367711 494.66148467 -59.91015625 482.640625 C-61.25909237 480.93617487 -62.64023315 479.25650344 -64.05859375 477.609375 C-76.43967201 463.16099743 -103 431.18451967 -103 411 C-89.14 411 -75.28 411 -61 411 C-56.545 419.415 -56.545 419.415 -52 428 C-50.08538505 431.13584178 -48.19729309 434.1705499 -46.125 437.1875 C-45.62162109 437.92959717 -45.11824219 438.67169434 -44.59960938 439.4362793 C-36.33086282 451.48883119 -27.10230974 462.4529811 -17 473 C-16.29101562 473.75023437 -15.58203125 474.50046875 -14.8515625 475.2734375 C-9.62537957 480.6702713 -3.8822212 485.33935119 2 490 C2.95390625 490.78246094 3.9078125 491.56492187 4.890625 492.37109375 C36.17533227 517.43896817 73.90940052 531.18547394 113 538 C116.63 538.66 120.26 539.32 124 540 C124 470.7 124 401.4 124 330 C42.82 330 -38.36 330 -122 330 C-123.16046981 326.51859057 -123.18002058 323.36962444 -123.203125 319.74609375 C-123.21364647 318.65969353 -123.21364647 318.65969353 -123.22438049 317.55134583 C-123.24202684 315.18000166 -123.2482482 312.80890774 -123.25 310.4375 C-123.25067474 309.62655884 -123.25134949 308.81561768 -123.25204468 307.98010254 C-123.1941066 264.06195909 -112.78967678 221.72471045 -92 183 C-91.6390625 182.32743164 -91.278125 181.65486328 -90.90625 180.96191406 C-80.66540363 162.03590544 -68.10858359 145.1850178 -54 129 C-53.56123535 128.49662109 -53.1224707 127.99324219 -52.67041016 127.47460938 C-48.07516428 122.23565144 -43.42521636 117.25634508 -38.08203125 112.77734375 C-36.60674271 111.5179511 -35.16967604 110.2131485 -33.76171875 108.87890625 C-25.45552616 101.01192136 -16.32222774 94.32660792 -7.11547852 87.55883789 C-6.06831665 86.78721313 -6.06831665 86.78721313 -5 86 C-3.96144112 85.45552719 -3.96144112 85.45552719 -2.90190125 84.90005493 C-0.4914934 82.49198704 -0.50465415 80.68169095 -0.43885803 77.35945129 C-0.44640358 76.21146309 -0.44640358 76.21146309 -0.45410156 75.0402832 C-0.43859505 73.82530655 -0.43859505 73.82530655 -0.42277527 72.58578491 C-0.39326631 69.90724937 -0.39184642 67.22946681 -0.390625 64.55078125 C-0.37564878 62.6941737 -0.35892281 60.83757951 -0.34051514 58.98100281 C-0.29676662 54.0934489 -0.27682596 49.2060747 -0.26177979 44.31835938 C-0.23879974 38.45451938 -0.18636163 32.59087833 -0.13883972 26.72719574 C-0.06994531 17.81807842 -0.03856106 8.90953296 0 0 Z M81.0625 92.125 C79.61677612 92.55462036 79.61677612 92.55462036 78.1418457 92.99291992 C66.08274151 96.71217387 52.55845842 100.96102772 42 108 C42 140.34 42 172.68 42 206 C109.65 206 177.3 206 247 206 C247 173.66 247 141.32 247 108 C235.01407171 101.95250019 235.01407171 101.95250019 222.6875 96.9375 C221.31476929 96.4422583 221.31476929 96.4422583 219.91430664 95.93701172 C200.71200695 89.23812135 180.44332654 84.7050023 160.0703125 84.6640625 C158.87808075 84.6574057 157.685849 84.6507489 156.45748901 84.64389038 C153.94823734 84.63383379 151.4389593 84.62907117 148.9296875 84.62939453 C145.16879983 84.62505059 141.4091162 84.58873305 137.6484375 84.55078125 C118.25668028 84.45965285 99.67065673 86.45495845 81.0625 92.125 Z M-5.5625 140.0625 C-8.64346016 142.87289426 -11.74185364 145.63399143 -14.9375 148.3125 C-55.15639982 183.62469404 -75.62923993 236.40467949 -83 288 C-14.69 288 53.62 288 124 288 C124 274.8 124 261.6 124 248 C83.08 248 42.16 248 0 248 C0 211.04 0 174.08 0 136 C-2.09711742 136 -4.14393914 138.76522068 -5.5625 140.0625 Z M166 330 C166 399.3 166 468.6 166 540 C183.19537353 537.8424539 183.19537353 537.8424539 200 534.3125 C200.98363525 534.05903809 201.96727051 533.80557617 202.98071289 533.54443359 C242.29127836 523.06873818 275.59667866 502.82448871 305 475 C306.39412109 473.68708984 306.39412109 473.68708984 307.81640625 472.34765625 C314.96576632 465.42203149 321.05104101 457.959659 327 450 C327.63204346 449.16710449 327.63204346 449.16710449 328.27685547 448.31738281 C350.86797878 418.4487598 364.53374906 383.8300124 370.875 347.0625 C370.99520508 346.37212646 371.11541016 345.68175293 371.23925781 344.97045898 C372.05172786 339.82460575 372 335.35304575 372 330 C304.02 330 236.04 330 166 330 Z " fill="#FFFFFF" transform="translate(123,0)"/>
</svg>
