<?xml version="1.0" encoding="UTF-8"?>
<svg version="1.1" xmlns="http://www.w3.org/2000/svg" width="555" height="638">
<path d="M0 0 C20.46 0 40.92 0 62 0 C62 18.48 62 36.96 62 56 C69.26 53.69 76.52 51.38 84 49 C87.96744958 47.98258333 91.81084052 47.02611329 95.8125 46.25 C96.80797852 46.05446533 97.80345703 45.85893066 98.82910156 45.6574707 C101.88188012 45.07771098 104.93859062 44.53213661 108 44 C108.91894043 43.83483887 109.83788086 43.66967773 110.78466797 43.49951172 C139.71680704 38.51867168 172.17046503 38.59968493 201 44 C201.98226563 44.17692383 202.96453125 44.35384766 203.9765625 44.53613281 C235.69605395 50.34802697 235.69605395 50.34802697 247 56 C247 37.52 247 19.04 247 0 C267.46 0 287.92 0 309 0 C308.92136719 6.16429688 308.84273438 12.32859375 308.76171875 18.6796875 C308.74088318 22.59921682 308.72390193 26.51801331 308.72070312 30.4375 C308.71526791 36.65108773 308.69604798 42.86237369 308.59204102 49.07519531 C308.50901548 54.08819031 308.49007295 59.09781028 308.51441383 64.11139297 C308.51263016 66.01797254 308.48826074 67.92467674 308.44031334 69.83065414 C307.88214168 79.75549836 307.88214168 79.75549836 311.26556778 88.75965118 C314.73566463 92.2575375 318.74235799 94.57870448 323 97 C324.71117651 98.28147861 326.40416912 99.58833314 328.0625 100.9375 C329.25166016 101.89269531 329.25166016 101.89269531 330.46484375 102.8671875 C334.49324765 106.25626073 338.34185865 109.83271082 342.1953125 113.41796875 C344.42245935 115.46830868 346.67895875 117.43437837 349 119.375 C379.90451725 146.31247777 403.21146849 186.91492907 417 225 C417 225.33 417 225.66 417 226 C395.22 226 373.44 226 351 226 C345.555 216.1 345.555 216.1 340 206 C330.78486434 192.36536051 321.03269759 180.25855287 310 168 C309.67 200.67 309.34 233.34 309 267 C268.08 267 227.16 267 185 267 C185 273.6 185 280.2 185 287 C266.18 287 347.36 287 431 287 C431.77768792 297.1099429 432.2420941 307.01456343 432.25 317.125 C432.25101212 318.30153137 432.25101212 318.30153137 432.25204468 319.50183105 C432.16089899 386.80653007 407.69149443 454.8510585 361 504 C359.868134 505.30658357 358.74269848 506.61877662 357.625 507.9375 C349.53038344 517.21020629 340.67742815 525.40934881 331 533 C329.90785637 533.88157781 328.81675404 534.76444681 327.7265625 535.6484375 C292.61226496 563.94951313 251.07616497 582.67805787 206.875 591.3125 C205.65067261 591.55190308 205.65067261 591.55190308 204.40161133 591.79614258 C197.8884443 592.99133414 191.68482101 593.44293158 185 594 C185 608.19 185 622.38 185 637 C164.87 637 144.74 637 124 637 C124 622.81 124 608.62 124 594 C120.04 593.67 116.08 593.34 112 593 C109.72095085 592.65012753 107.44719946 592.25929417 105.1875 591.80078125 C104.02033447 591.56447998 102.85316895 591.32817871 101.65063477 591.0847168 C99.84357056 590.70246948 99.84357056 590.70246948 98 590.3125 C96.09142212 589.90994995 96.09142212 589.90994995 94.14428711 589.49926758 C75.59864654 585.49367149 58.37764728 579.59156634 41 572 C39.83742676 571.49315674 39.83742676 571.49315674 38.65136719 570.97607422 C13.46250483 559.86529471 -10.3603352 544.35568582 -30.39453125 525.45703125 C-32.61342095 523.36455505 -34.86970601 521.35582591 -37.1875 519.375 C-44.38364472 513.10067547 -50.74079564 506.31797397 -56.6953125 498.859375 C-58.21984903 496.96791612 -59.77711945 495.10233727 -61.3671875 493.265625 C-68.75998578 484.71548769 -74.96030627 475.53915731 -81 466 C-81.43844238 465.30777344 -81.87688477 464.61554688 -82.32861328 463.90234375 C-107 424.48887793 -107 424.48887793 -107 411 C-86.54 411 -66.08 411 -45 411 C-40.71 418.59 -36.42 426.18 -32 434 C-22.44454014 448.90651738 -12.10876939 462.15135051 0 475 C1.03447266 476.09828125 1.03447266 476.09828125 2.08984375 477.21875 C34.63283816 510.75999577 78.04069182 528.00813836 123 537 C123.33 474.96 123.66 412.92 124 349 C106.32566406 349.01160156 88.65132812 349.02320313 70.44140625 349.03515625 C59.28059881 349.0402625 48.11979222 349.04511748 36.95898438 349.04882812 C31.09920245 349.05078614 25.23942054 349.05280666 19.37963867 349.05493164 C18.27792569 349.05532726 18.27792569 349.05532726 17.15395588 349.05573088 C5.28091064 349.06008569 -6.59212979 349.06797253 -18.46517216 349.0771528 C-30.64106031 349.08648903 -42.81694591 349.09205554 -54.99283749 349.09408849 C-62.51205311 349.09546379 -70.03125511 349.0998147 -77.55046654 349.10791647 C-83.30649272 349.11380426 -89.06251008 349.11445904 -94.81853867 349.11310768 C-97.18696616 349.1133842 -99.55539415 349.11539185 -101.92381859 349.11920547 C-105.14209787 349.12413603 -108.36031754 349.12300066 -111.57859802 349.12025452 C-113.00415226 349.12462378 -113.00415226 349.12462378 -114.45850557 349.12908131 C-120.88587879 349.11412121 -120.88587879 349.11412121 -122 348 C-123.16156641 338.20311641 -123.20348234 328.28957889 -123.1875 318.4375 C-123.18659363 317.39277023 -123.18659363 317.39277023 -123.18566895 316.32693481 C-123.15790136 304.45849302 -122.65661257 292.76263286 -121 281 C-120.87641113 280.11151367 -120.75282227 279.22302734 -120.62548828 278.30761719 C-112.39094156 221.39442278 -86.97696555 168.34633054 -47 127 C-46.2874707 126.26023926 -45.57494141 125.52047852 -44.84082031 124.75830078 C-36.21278292 115.84314368 -27.5992839 107.17281337 -17.6640625 99.71484375 C-16.87090385 99.09540642 -16.87090385 99.09540642 -16.0617218 98.4634552 C-14 97 -14 97 -10.85075378 95.2507782 C-6.4817461 92.65045782 -2.07232126 89.9178292 -0.2514801 84.9632473 C0.9171486 79.03023786 0.63959592 73.00716067 0.48828125 66.9921875 C0.4864698 65.05591542 0.49040116 63.11963024 0.49980164 61.18338013 C0.50912704 56.11514815 0.44103321 51.05087324 0.35620117 45.98345947 C0.27051759 39.88879568 0.2820359 33.79361721 0.27706146 27.69845581 C0.25874005 18.46312935 0.11782876 9.23700176 0 0 Z M62 123 C62 150.06 62 177.12 62 205 C123.05 205 184.1 205 247 205 C247 177.94 247 150.88 247 123 C235.70268943 117.75387123 235.70268943 117.75387123 224.125 113.4375 C223.24569824 113.14721924 222.36639648 112.85693848 221.46044922 112.55786133 C199.79654309 105.63601634 177.86274806 102.57083938 155.1875 102.625 C154.28781494 102.62587616 153.38812988 102.62675232 152.46118164 102.62765503 C127.74495633 102.70674739 80.66771679 104.33228321 62 123 Z M-1 167 C-9.04561327 175.09863214 -16.30954812 183.75639765 -23 193 C-23.77601562 194.05703125 -24.55203125 195.1140625 -25.3515625 196.203125 C-42.78755432 220.70998318 -61 256.13357486 -61 287 C0.05 287 61.1 287 124 287 C124 280.4 124 273.8 124 267 C83.08 267 42.16 267 0 267 C0 234 0 201 0 167 C-0.33 167 -0.66 167 -1 167 Z M185 349 C185 411.37 185 473.74 185 538 C241.74859566 527.68207352 293.87037293 500.95124284 328.74121094 453.69873047 C329.96672711 452.04490162 331.21896464 450.41465656 332.4765625 448.78515625 C344.31388966 433.16316929 353.0846614 415.27879381 360 397 C360.27537598 396.2795752 360.55075195 395.55915039 360.83447266 394.81689453 C366.23503877 380.43817209 371 364.41410433 371 349 C309.62 349 248.24 349 185 349 Z " fill="#FAFAFA" transform="translate(123,1)"/>
<path d="M0 0 C20.46 0 40.92 0 62 0 C62 18.48 62 36.96 62 56 C69.26 53.69 76.52 51.38 84 49 C87.96744958 47.98258333 91.81084052 47.02611329 95.8125 46.25 C96.80797852 46.05446533 97.80345703 45.85893066 98.82910156 45.6574707 C101.88188012 45.07771098 104.93859062 44.53213661 108 44 C108.91894043 43.83483887 109.83788086 43.66967773 110.78466797 43.49951172 C139.71680704 38.51867168 172.17046503 38.59968493 201 44 C201.98226563 44.17692383 202.96453125 44.35384766 203.9765625 44.53613281 C235.69605395 50.34802697 235.69605395 50.34802697 247 56 C247 37.52 247 19.04 247 0 C267.46 0 287.92 0 309 0 C308.92136719 6.16429688 308.84273438 12.32859375 308.76171875 18.6796875 C308.74088318 22.59921682 308.72390193 26.51801331 308.72070312 30.4375 C308.71526791 36.65108773 308.69604798 42.86237369 308.59204102 49.07519531 C308.50901548 54.08819031 308.49007295 59.09781028 308.51441383 64.11139297 C308.51263016 66.01797254 308.48826074 67.92467674 308.44031334 69.83065414 C307.88214168 79.75549836 307.88214168 79.75549836 311.26556778 88.75965118 C314.73566463 92.2575375 318.74235799 94.57870448 323 97 C324.71117651 98.28147861 326.40416912 99.58833314 328.0625 100.9375 C329.25166016 101.89269531 329.25166016 101.89269531 330.46484375 102.8671875 C334.49324765 106.25626073 338.34185865 109.83271082 342.1953125 113.41796875 C344.42245935 115.46830868 346.67895875 117.43437837 349 119.375 C379.90451725 146.31247777 403.21146849 186.91492907 417 225 C417 225.33 417 225.66 417 226 C395.22 226 373.44 226 351 226 C345.555 216.1 345.555 216.1 340 206 C330.78486434 192.36536051 321.03269759 180.25855287 310 168 C309.67 200.67 309.34 233.34 309 267 C268.08 267 227.16 267 185 267 C185 273.6 185 280.2 185 287 C266.18 287 347.36 287 431 287 C431.77768792 297.1099429 432.2420941 307.01456343 432.25 317.125 C432.25101212 318.30153137 432.25101212 318.30153137 432.25204468 319.50183105 C432.16089899 386.80653007 407.69149443 454.8510585 361 504 C359.868134 505.30658357 358.74269848 506.61877662 357.625 507.9375 C349.53038344 517.21020629 340.67742815 525.40934881 331 533 C329.90785637 533.88157781 328.81675404 534.76444681 327.7265625 535.6484375 C292.61226496 563.94951313 251.07616497 582.67805787 206.875 591.3125 C205.65067261 591.55190308 205.65067261 591.55190308 204.40161133 591.79614258 C197.8884443 592.99133414 191.68482101 593.44293158 185 594 C185 608.19 185 622.38 185 637 C164.87 637 144.74 637 124 637 C124 622.81 124 608.62 124 594 C120.04 593.67 116.08 593.34 112 593 C109.72095085 592.65012753 107.44719946 592.25929417 105.1875 591.80078125 C104.02033447 591.56447998 102.85316895 591.32817871 101.65063477 591.0847168 C99.84357056 590.70246948 99.84357056 590.70246948 98 590.3125 C96.09142212 589.90994995 96.09142212 589.90994995 94.14428711 589.49926758 C75.59864654 585.49367149 58.37764728 579.59156634 41 572 C39.83742676 571.49315674 39.83742676 571.49315674 38.65136719 570.97607422 C13.46250483 559.86529471 -10.3603352 544.35568582 -30.39453125 525.45703125 C-32.61342095 523.36455505 -34.86970601 521.35582591 -37.1875 519.375 C-44.38364472 513.10067547 -50.74079564 506.31797397 -56.6953125 498.859375 C-58.21984903 496.96791612 -59.77711945 495.10233727 -61.3671875 493.265625 C-68.75998578 484.71548769 -74.96030627 475.53915731 -81 466 C-81.43844238 465.30777344 -81.87688477 464.61554688 -82.32861328 463.90234375 C-107 424.48887793 -107 424.48887793 -107 411 C-86.54 411 -66.08 411 -45 411 C-40.71 418.59 -36.42 426.18 -32 434 C-22.44454014 448.90651738 -12.10876939 462.15135051 0 475 C1.03447266 476.09828125 1.03447266 476.09828125 2.08984375 477.21875 C34.63283816 510.75999577 78.04069182 528.00813836 123 537 C123.33 474.96 123.66 412.92 124 349 C106.32566406 349.01160156 88.65132812 349.02320313 70.44140625 349.03515625 C59.28059881 349.0402625 48.11979222 349.04511748 36.95898438 349.04882812 C31.09920245 349.05078614 25.23942054 349.05280666 19.37963867 349.05493164 C18.27792569 349.05532726 18.27792569 349.05532726 17.15395588 349.05573088 C5.28091064 349.06008569 -6.59212979 349.06797253 -18.46517216 349.0771528 C-30.64106031 349.08648903 -42.81694591 349.09205554 -54.99283749 349.09408849 C-62.51205311 349.09546379 -70.03125511 349.0998147 -77.55046654 349.10791647 C-83.30649272 349.11380426 -89.06251008 349.11445904 -94.81853867 349.11310768 C-97.18696616 349.1133842 -99.55539415 349.11539185 -101.92381859 349.11920547 C-105.14209787 349.12413603 -108.36031754 349.12300066 -111.57859802 349.12025452 C-113.00415226 349.12462378 -113.00415226 349.12462378 -114.45850557 349.12908131 C-120.88587879 349.11412121 -120.88587879 349.11412121 -122 348 C-123.16156641 338.20311641 -123.20348234 328.28957889 -123.1875 318.4375 C-123.18659363 317.39277023 -123.18659363 317.39277023 -123.18566895 316.32693481 C-123.15790136 304.45849302 -122.65661257 292.76263286 -121 281 C-120.87641113 280.11151367 -120.75282227 279.22302734 -120.62548828 278.30761719 C-112.39094156 221.39442278 -86.97696555 168.34633054 -47 127 C-46.2874707 126.26023926 -45.57494141 125.52047852 -44.84082031 124.75830078 C-36.21278292 115.84314368 -27.5992839 107.17281337 -17.6640625 99.71484375 C-16.87090385 99.09540642 -16.87090385 99.09540642 -16.0617218 98.4634552 C-14 97 -14 97 -10.85075378 95.2507782 C-6.4817461 92.65045782 -2.07232126 89.9178292 -0.2514801 84.9632473 C0.9171486 79.03023786 0.63959592 73.00716067 0.48828125 66.9921875 C0.4864698 65.05591542 0.49040116 63.11963024 0.49980164 61.18338013 C0.50912704 56.11514815 0.44103321 51.05087324 0.35620117 45.98345947 C0.27051759 39.88879568 0.2820359 33.79361721 0.27706146 27.69845581 C0.25874005 18.46312935 0.11782876 9.23700176 0 0 Z M21 20 C21.01160156 22.29590088 21.02320313 24.59180176 21.03515625 26.95727539 C21.06772045 34.55702061 21.05626333 42.15624524 21.02334595 49.75597477 C21.00473834 54.3623127 21.0007949 58.96767625 21.03076172 63.57397461 C21.059156 68.02250049 21.04851083 72.46940181 21.01119995 76.91784477 C21.00377376 78.61182766 21.01023362 80.30593212 21.03103638 81.99980354 C21.18028924 95.2452887 21.18028924 95.2452887 18.29324341 99.53739929 C16.27437843 101.33798922 14.34630656 102.66660626 12 104 C10.65749664 104.95305758 9.32061289 105.91413456 7.9921875 106.88671875 C6.62110767 107.82224412 5.24867138 108.75578408 3.875 109.6875 C-15.52848262 123.19291477 -33.86671333 140.00752833 -48 159 C-48.86034837 160.12004424 -49.72104995 161.23981722 -50.58203125 162.359375 C-57.76407762 171.81330612 -64.05671986 181.72858427 -70 192 C-70.39429199 192.67724121 -70.78858398 193.35448242 -71.19482422 194.05224609 C-81.95064865 212.75224447 -89.43179086 233.20811802 -95 254 C-95.28931396 255.04099854 -95.28931396 255.04099854 -95.58447266 256.10302734 C-102.1890939 280.08580631 -102 304.04655713 -102 329 C-20.82 329 60.36 329 144 329 C144 405.23 144 481.46 144 560 C76.57473139 551.29996534 13.42582861 528.29637679 -29.8125 472.9375 C-31.12394852 471.21579849 -32.4200585 469.48431365 -33.70556641 467.74316406 C-35.02587785 465.96515129 -36.3752701 464.21246329 -37.73046875 462.4609375 C-44.70956632 453.32799477 -50.48048071 443.66474121 -56.05126953 433.61962891 C-56.89792159 432.01783295 -56.89792159 432.01783295 -58 431 C-59.34267413 430.91368126 -60.68974322 430.89293527 -62.03515625 430.90234375 C-62.84404297 430.90556641 -63.65292969 430.90878906 -64.48632812 430.91210938 C-65.33646484 430.92048828 -66.18660156 430.92886719 -67.0625 430.9375 C-67.91650391 430.94201172 -68.77050781 430.94652344 -69.65039062 430.95117188 C-71.76695663 430.96299627 -73.88348685 430.98093231 -76 431 C-74.54130146 435.95957505 -72.42713253 440.16954567 -69.875 444.625 C-69.47539063 445.3272168 -69.07578125 446.02943359 -68.6640625 446.75292969 C-45.3536506 487.2695238 -11.40236999 519.87694785 29 543 C29.63325195 543.36593262 30.26650391 543.73186523 30.91894531 544.10888672 C65.21685588 563.736165 104.60871259 574.15590098 144 575 C144 588.86 144 602.72 144 617 C150.93 617 157.86 617 165 617 C165 603.14 165 589.28 165 575 C168.63 575 172.26 575 176 575 C179.5909185 574.62852567 183.12135116 574.21195254 186.6875 573.6875 C187.64011719 573.55142334 188.59273438 573.41534668 189.57421875 573.27514648 C201.91750954 571.47612015 214.06356914 569.36514738 225.99462891 565.62744141 C227.41658745 565.18253838 228.84101837 564.74550273 230.26708984 564.31396484 C294.91087021 544.65218463 349.68588667 499.05488839 381.56640625 439.625 C382.37961256 438.08439178 383.19084893 436.54274195 384 435 C384.57016846 433.92685547 384.57016846 433.92685547 385.15185547 432.83203125 C395.51233104 413.09094287 402.71267029 390.84933268 407 369 C407.2742107 367.68608743 407.5489595 366.37228706 407.82421875 365.05859375 C411.65872626 346.28375991 413.20686756 327.16181154 412 308 C410.0418458 306.0418458 407.03914752 306.8769616 404.43233246 306.87091869 C403.47807202 306.87383153 402.52381158 306.87674437 401.54063416 306.87974548 C400.53522585 306.87889106 399.52981754 306.87803663 398.49394232 306.87715632 C395.097425 306.87549848 391.70095619 306.88102783 388.30444336 306.88647461 C385.88068137 306.88675644 383.45691929 306.88659883 381.03315735 306.8860321 C375.80079103 306.88580379 370.56843585 306.88865514 365.33607292 306.89426994 C357.7708721 306.90238282 350.2056773 306.90499994 342.6404726 306.90625793 C330.36765215 306.90844879 318.09483833 306.91510978 305.82202148 306.92456055 C293.89721714 306.9337338 281.97241458 306.94081506 270.04760742 306.94506836 C268.94580014 306.94546244 268.94580014 306.94546244 267.82173412 306.94586449 C264.13692324 306.94716949 260.45211234 306.94843321 256.76730144 306.94967639 C226.17819516 306.96005005 195.58910105 306.97848891 165 307 C165 287.2 165 267.4 165 247 C173.86746094 247.01160156 182.73492187 247.02320313 191.87109375 247.03515625 C198.18370948 247.04091163 204.49632325 247.04603855 210.80893993 247.05025387 C218.99706282 247.05580573 227.18517558 247.06286555 235.37329102 247.07543945 C241.85381342 247.08538641 248.33432819 247.09185346 254.81485802 247.09408849 C258.24830542 247.09539558 261.681731 247.0984813 265.11517143 247.10573006 C268.94193821 247.11374416 272.76868335 247.11399113 276.59545898 247.11352539 C278.31527733 247.1189183 278.31527733 247.1189183 280.06983948 247.12442017 C281.10615509 247.1230455 282.1424707 247.12167084 283.21018982 247.12025452 C284.11631232 247.12117631 285.02243483 247.1220981 285.95601559 247.12304783 C287.99395435 247.22715834 287.99395435 247.22715834 289 246 C289.10809116 244.41886387 289.14684044 242.83293938 289.15821838 241.24815369 C289.1680072 240.22025223 289.17779602 239.19235077 289.18788147 238.13330078 C289.19363693 236.99610596 289.1993924 235.85891113 289.20532227 234.68725586 C289.21522186 233.49717422 289.22512146 232.30709259 289.23532104 231.08094788 C289.26157103 227.80839691 289.28340731 224.53585135 289.30332303 221.26325679 C289.32514533 217.84658439 289.35255233 214.42995703 289.37937927 211.01332092 C289.42935712 204.53934001 289.47427698 198.06533416 289.51740164 191.59130436 C289.56673059 184.22258881 289.62166477 176.85391843 289.67708123 169.48524654 C289.79097941 154.32353977 289.89780129 139.16179048 290 124 C292.24581399 125.75982034 294.49100225 127.52042906 296.73583984 129.28149414 C297.36816025 129.77684914 298.00048065 130.27220413 298.65196228 130.78256989 C303.05894994 134.24117639 307.40439904 137.75233921 311.625 141.4375 C312.24197754 141.97552246 312.85895508 142.51354492 313.49462891 143.06787109 C323.23007062 151.6449883 332.0034134 160.75925588 340 171 C340.77730469 171.96035156 341.55460937 172.92070312 342.35546875 173.91015625 C350.01594669 183.54360307 357.48514118 193.97028235 363 205 C370.26 205 377.52 205 385 205 C383.15786026 199.47358078 381.02736735 195.15487689 378.125 190.1875 C377.6417627 189.35798828 377.15852539 188.52847656 376.66064453 187.67382812 C369.17729101 175.02929247 360.59765335 163.12616852 351 152 C350.36578125 151.25492188 349.7315625 150.50984375 349.078125 149.7421875 C338.51429741 137.66339239 327.06177326 125.37084832 314 116 C313.1963501 115.42161377 313.1963501 115.42161377 312.37646484 114.83154297 C309.96631422 113.09918491 307.55241068 111.37242873 305.12915039 109.65844727 C293.26163768 101.26163768 293.26163768 101.26163768 290 98 C289.87507611 95.56700213 289.81398493 93.16095077 289.79467773 90.72631836 C289.78477814 89.96539383 289.77487854 89.2044693 289.76467896 88.42048645 C289.73297376 85.8936377 289.7082711 83.36677012 289.68359375 80.83984375 C289.66303199 79.09248859 289.64203574 77.34513849 289.62062073 75.59779358 C289.56531959 70.98973682 289.51594592 66.38163459 289.46777344 61.77349854 C289.41761697 57.07486911 289.36190042 52.37630606 289.30664062 47.67773438 C289.19896073 38.45187741 289.09805129 29.22596433 289 20 C281.74 20 274.48 20 267 20 C267 41.78 267 63.56 267 86 C258.75 82.7 250.5 79.4 242 76 C215.04058583 65.63099455 186.15634137 60.76575682 157.3125 60.875 C156.64748474 60.87721558 155.98246948 60.87943115 155.29730225 60.88171387 C115.13889177 61.03851199 78.82908123 70.21610804 42 86 C42 64.22 42 42.44 42 20 C35.07 20 28.14 20 21 20 Z " fill="#231F20" transform="translate(123,1)"/>
<path d="M0 0 C75.57 0 151.14 0 229 0 C224.40386467 52.85555627 210.30500003 99.02099827 177 141 C176.57315918 141.54398438 176.14631836 142.08796875 175.70654297 142.6484375 C163.44278393 158.1577765 149.07434881 172.47188265 133 184 C131.93652344 184.7734375 130.87304688 185.546875 129.77734375 186.34375 C99.44935065 207.86446442 65.14240413 222.6177874 28.4375 228.75 C27.76775146 228.86569336 27.09800293 228.98138672 26.40795898 229.10058594 C17.62608766 230.44457276 8.9387589 230.52953901 0 231 C0 154.77 0 78.54 0 0 Z M20 20 C20 82.37 20 144.74 20 209 C76.74859566 198.68207352 128.87037293 171.95124284 163.74121094 124.69873047 C164.96672711 123.04490162 166.21896464 121.41465656 167.4765625 119.78515625 C179.31388966 104.16316929 188.0846614 86.27879381 195 68 C195.27537598 67.2795752 195.55075195 66.55915039 195.83447266 65.81689453 C201.23503877 51.43817209 206 35.41410433 206 20 C144.62 20 83.24 20 20 20 Z " fill="#231F20" transform="translate(288,330)"/>
<path d="M0 0 C0 41.25 0 82.5 0 125 C40.59 125 81.18 125 123 125 C123 144.8 123 164.6 123 185 C47.76 185 -27.48 185 -105 185 C-105 132.54517185 -80.65059969 79.5685089 -46 41 C-45.52933105 40.47438477 -45.05866211 39.94876953 -44.57373047 39.40722656 C-41.42379631 35.89835873 -38.22853772 32.43666672 -35 29 C-34.38640625 28.34386719 -33.7728125 27.68773437 -33.140625 27.01171875 C-28.67592795 22.38756823 -23.7314542 18.40061892 -18.72021484 14.38623047 C-16.72741047 12.78033447 -14.74817467 11.15846589 -12.76953125 9.53515625 C-11.30469408 8.33592946 -9.83985036 7.13671068 -8.375 5.9375 C-7.66351807 5.35274902 -6.95203613 4.76799805 -6.21899414 4.16552734 C-5.55633545 3.62492676 -4.89367676 3.08432617 -4.2109375 2.52734375 C-3.31834229 1.79632446 -3.31834229 1.79632446 -2.40771484 1.05053711 C-1 0 -1 0 0 0 Z M-22 45 C-30.04561327 53.09863214 -37.30954812 61.75639765 -44 71 C-44.77601562 72.05703125 -45.55203125 73.1140625 -46.3515625 74.203125 C-63.78755432 98.70998318 -82 134.13357486 -82 165 C-20.95 165 40.1 165 103 165 C103 158.4 103 151.8 103 145 C62.08 145 21.16 145 -21 145 C-21 112 -21 79 -21 45 C-21.33 45 -21.66 45 -22 45 Z " fill="#232020" transform="translate(144,123)"/>
<path d="M0 0 C1.50114853 -0.01475876 1.50114853 -0.01475876 3.03262329 -0.02981567 C33.22040279 -0.26559607 60.42193759 1.58831415 89.25390625 11.23828125 C90.11483887 11.52606445 90.97577148 11.81384766 91.86279297 12.11035156 C121.05545264 22.03982764 121.05545264 22.03982764 126.25390625 27.23828125 C126.34962596 28.73111923 126.37578852 30.2284778 126.37416077 31.72438049 C126.37622701 33.17484819 126.37622701 33.17484819 126.378335 34.65461826 C126.37473689 35.72838183 126.37113878 36.8021454 126.36743164 37.90844727 C126.36755218 39.04846915 126.36767271 40.18849104 126.3677969 41.36305904 C126.36704734 45.07278802 126.35941717 48.78246745 126.3515625 52.4921875 C126.35009321 54.77469865 126.34907242 57.05721013 126.34851074 59.33972168 C126.34325632 67.82674666 126.32929526 76.31376443 126.31640625 84.80078125 C126.29578125 103.75515625 126.27515625 122.70953125 126.25390625 142.23828125 C52.00390625 142.23828125 -22.24609375 142.23828125 -98.74609375 142.23828125 C-98.74609375 104.28828125 -98.74609375 66.33828125 -98.74609375 27.23828125 C-79.8351683 17.78281853 -79.8351683 17.78281853 -73.05859375 15.11328125 C-72.23029053 14.78618164 -71.4019873 14.45908203 -70.54858398 14.12207031 C-48.05961505 5.4619057 -24.12712291 0.19577921 0 0 Z M-78.74609375 40.23828125 C-78.74609375 67.29828125 -78.74609375 94.35828125 -78.74609375 122.23828125 C-17.69609375 122.23828125 43.35390625 122.23828125 106.25390625 122.23828125 C106.25390625 95.17828125 106.25390625 68.11828125 106.25390625 40.23828125 C94.95659568 34.99215248 94.95659568 34.99215248 83.37890625 30.67578125 C82.49960449 30.38550049 81.62030273 30.09521973 80.71435547 29.79614258 C59.05044934 22.87429759 37.11665431 19.80912063 14.44140625 19.86328125 C13.54172119 19.86415741 12.64203613 19.86503357 11.71508789 19.86593628 C-13.00113742 19.94502864 -60.07837696 21.57056446 -78.74609375 40.23828125 Z " fill="#231F20" transform="translate(263.74609375,83.76171875)"/>
</svg>
